<?xml version="1.0" encoding="UTF-8" standalone="no"?>
<svg
   xmlns:dc="http://purl.org/dc/elements/1.1/"
   xmlns:cc="http://creativecommons.org/ns#"
   xmlns:rdf="http://www.w3.org/1999/02/22-rdf-syntax-ns#"
   xmlns:svg="http://www.w3.org/2000/svg"
   xmlns="http://www.w3.org/2000/svg"
   xmlns:xlink="http://www.w3.org/1999/xlink"
   xmlns:sodipodi="http://sodipodi.sourceforge.net/DTD/sodipodi-0.dtd"
   xmlns:inkscape="http://www.inkscape.org/namespaces/inkscape"
   width="210mm"
   height="297mm"
   viewBox="0 0 210 297"
   version="1.1"
   id="svg2451"
   sodipodi:docname="simon_saysv21.svg"
   inkscape:version="1.0.1 (3bc2e813f5, 2020-09-07)">
  <defs
     id="defs2445" />
  <sodipodi:namedview
     id="base"
     pagecolor="#ffffff"
     bordercolor="#666666"
     borderopacity="1.0"
     inkscape:pageopacity="0.0"
     inkscape:pageshadow="2"
     inkscape:zoom="0.98994949"
     inkscape:cx="-173.46712"
     inkscape:cy="594.62041"
     inkscape:document-units="mm"
     inkscape:current-layer="layer1"
     inkscape:document-rotation="0"
     showgrid="false"
     inkscape:window-width="1920"
     inkscape:window-height="1017"
     inkscape:window-x="-8"
     inkscape:window-y="-8"
     inkscape:window-maximized="1"
     showguides="true"
     inkscape:guide-bbox="true"
     showborder="false">
    <sodipodi:guide
       position="210.5,206.6"
       orientation="1,0"
       id="guide3721" />
  </sodipodi:namedview>
  <metadata
     id="metadata2448">
    <rdf:RDF>
      <cc:Work
         rdf:about="">
        <dc:format>image/svg+xml</dc:format>
        <dc:type
           rdf:resource="http://purl.org/dc/dcmitype/StillImage" />
        <dc:title></dc:title>
      </cc:Work>
    </rdf:RDF>
  </metadata>
  <g
     inkscape:label="Layer 1"
     inkscape:groupmode="layer"
     id="layer1">
    <g
       id="panel55"
       transform="translate(1.5,4.5)">
      <path
         style="fill:none;stroke:#000000;stroke-width:1"
         d="M 49,124.1 H 60.15 V 121 h 10.2 v 3.1 H 81.4 V 121 h 10.2 v 3.1 h 11.05 V 121 h 10.2 v 3.1 H 123.9 V 121 h 10.2 v 3.1 h 11.05 V 121 h 10.2 v 3.1 H 166.4 V 121 h 10.2 v 3.1 h 11.05 V 121 h 10.2 v 3.1 H 209"
         id="path3389" />
      <path
         style="fill:none;stroke:#000000;stroke-width:1"
         d="m 209,124.1 v 14.5 h -3.1 v 9.8 h 3.1 v 14.5"
         id="path3391" />
      <path
         style="fill:none;stroke:#000000;stroke-width:1"
         d="m 209,162.9 h -11.15 v 3.1 h -10.2 v -3.1 H 176.6 v 3.1 h -10.2 v -3.1 h -11.05 v 3.1 h -10.2 v -3.1 H 134.1 v 3.1 h -10.2 v -3.1 h -11.05 v 3.1 h -10.2 v -3.1 H 91.6 V 166 H 81.4 v -3.1 H 70.35 v 3.1 h -10.2 v -3.1 H 49"
         id="path3393" />
      <path
         style="fill:none;stroke:#000000;stroke-width:1"
         d="m 49,162.9 v -14.5 h 3.1 v -9.8 H 49 v -14.5"
         id="path3395" />
    </g>
    <g
       id="panel7995"
       transform="translate(-0.5,-47.5)">
      <path
         style="fill:none;stroke:#000000;stroke-width:1"
         d="M 5.1,52.1 H 19.4 V 49 h 10.2 v 3.1 h 14.3"
         id="path3398" />
      <path
         style="fill:none;stroke:#000000;stroke-width:1"
         d="m 43.9,52.1 v 6.8 H 47 v 10.2 h -3.1 v 9.8 H 47 v 10.2 h -3.1 v 9.8 H 47 v 10.2 h -3.1 v 6.8"
         id="path3400" />
      <path
         style="fill:none;stroke:#000000;stroke-width:1"
         d="M 43.9,115.9 H 29.6 V 119 H 19.4 v -3.1 H 5.1"
         id="path3402" />
      <path
         style="fill:none;stroke:#000000;stroke-width:1"
         d="m 5.1,115.9 v -6.8 H 2 V 98.9 H 5.1 V 89.1 H 2 V 78.9 H 5.1 V 69.1 H 2 V 58.9 h 3.1 v -6.8"
         id="path3404" />
    </g>
    <g
       id="panel5418"
       transform="translate(-209.5,26.5)">
      <path
         style="fill:none;stroke:#000000;stroke-width:1"
         d="m 214.1,52.1 h 14.3 V 49 h 10.2 v 3.1 h 14.3"
         id="path3416" />
      <path
         style="fill:none;stroke:#000000;stroke-width:1"
         d="m 252.9,52.1 v 6.8 h 3.1 v 10.2 h -3.1 v 9.8 h 3.1 v 10.2 h -3.1 v 9.8 h 3.1 v 10.2 h -3.1 v 6.8"
         id="path3418" />
      <path
         style="fill:none;stroke:#000000;stroke-width:1"
         d="m 252.9,115.9 h -14.3 v 3.1 h -10.2 v -3.1 h -14.3"
         id="path3420" />
      <path
         style="fill:none;stroke:#000000;stroke-width:1"
         d="m 214.1,115.9 v -6.8 H 211 V 98.9 h 3.1 V 89.1 H 211 V 78.9 h 3.1 V 69.1 H 211 V 58.9 h 3.1 v -6.8"
         id="path3422" />
    </g>
    <g
       id="panel929"
       transform="translate(-207.5,126.5)">
      <path
         style="fill:none;stroke:#000000;stroke-width:1"
         d="m 258,49 h 11.35 v 3.1 h 9.8 V 49 h 11.45 v 3.1 h 9.8 V 49 h 11.45 v 3.1 h 9.8 V 49 h 11.45 v 3.1 h 9.8 V 49 h 11.45 v 3.1 h 9.8 V 49 h 11.45 v 3.1 h 9.8 V 49 h 11.45 v 3.1 h 9.8 V 49 H 418"
         id="path3425" />
      <path
         style="fill:none;stroke:#000000;stroke-width:1"
         d="m 418,49 v 10.1 h -3.1 v 9.8 h 3.1 v 10.2 h -3.1 v 9.8 h 3.1 v 10.2 h -3.1 v 9.8 H 418 V 119"
         id="path3427" />
      <path
         style="fill:none;stroke:#000000;stroke-width:1"
         d="m 418,119 h -11.35 v -3.1 h -9.8 V 119 H 385.4 v -3.1 h -9.8 v 3.1 h -11.45 v -3.1 h -9.8 V 119 H 342.9 v -3.1 h -9.8 v 3.1 h -11.45 v -3.1 h -9.8 V 119 H 300.4 v -3.1 h -9.8 v 3.1 h -11.45 v -3.1 h -9.8 V 119 H 258"
         id="path3429" />
      <path
         style="fill:none;stroke:#000000;stroke-width:1"
         d="m 258,119 v -10.1 h 3.1 V 99.1 H 258 V 88.9 h 3.1 V 79.1 H 258 V 68.9 h 3.1 V 59.1 H 258 V 49"
         id="path3431" />
    </g>
    <g
       id="panel7772"
       transform="translate(1.5,-0.5)">
      <path
         style="fill:none;stroke:#000000;stroke-width:1"
         d="M 49,5.1 H 60.15 V 2 h 10.2 V 5.1 H 81.4 V 2 h 10.2 v 3.1 h 11.05 V 2 h 10.2 V 5.1 H 123.9 V 2 h 10.2 v 3.1 h 11.05 V 2 h 10.2 V 5.1 H 166.4 V 2 h 10.2 v 3.1 h 11.05 V 2 h 10.2 V 5.1 H 209"
         id="path3434" />
      <path
         style="fill:none;stroke:#000000;stroke-width:1"
         d="m 209,5.1 v 14.5 h -3.1 v 9.8 h 3.1 v 14.5"
         id="path3436" />
      <path
         style="fill:none;stroke:#000000;stroke-width:1"
         d="M 209,43.9 H 197.85 V 47 h -10.2 V 43.9 H 176.6 V 47 H 166.4 V 43.9 H 155.35 V 47 h -10.2 V 43.9 H 134.1 V 47 H 123.9 V 43.9 H 112.85 V 47 h -10.2 V 43.9 H 91.6 V 47 H 81.4 V 43.9 H 70.35 V 47 H 60.15 V 43.9 H 49"
         id="path3438" />
      <path
         style="fill:none;stroke:#000000;stroke-width:1"
         d="M 49,43.9 V 29.4 h 3.1 V 19.6 H 49 V 5.1"
         id="path3440" />
    </g>
    <g
       id="g3555">
      <g
         id="panel5164"
         transform="translate(1.5,1.5)">
        <path
           style="fill:none;stroke:#000000;stroke-width:1"
           d="m 49,49 h 11.35 v 3.1 h 9.8 V 49 H 81.6 v 3.1 h 9.8 V 49 h 11.45 v 3.1 h 9.8 V 49 h 11.45 v 3.1 h 9.8 V 49 h 11.45 v 3.1 h 9.8 V 49 h 11.45 v 3.1 h 9.8 V 49 h 11.45 v 3.1 h 9.8 V 49 H 209"
           id="path3407" />
        <path
           style="fill:none;stroke:#000000;stroke-width:1"
           d="m 209,49 v 10.1 h -3.1 v 9.8 h 3.1 v 10.2 h -3.1 v 9.8 h 3.1 v 10.2 h -3.1 v 9.8 H 209 V 119"
           id="path3409" />
        <path
           style="fill:none;stroke:#000000;stroke-width:1"
           d="m 209,119 h -11.35 v -3.1 h -9.8 V 119 H 176.4 v -3.1 h -9.8 v 3.1 h -11.45 v -3.1 h -9.8 V 119 H 133.9 v -3.1 h -9.8 v 3.1 h -11.45 v -3.1 h -9.8 V 119 H 91.4 v -3.1 H 81.6 V 119 H 70.15 v -3.1 h -9.8 V 119 H 49"
           id="path3411" />
        <path
           style="fill:none;stroke:#000000;stroke-width:1"
           d="m 49,119 v -10.1 h 3.1 V 99.1 H 49 V 88.9 h 3.1 V 79.1 H 49 V 68.9 h 3.1 V 59.1 H 49 V 49"
           id="path3413" />
      </g>
      <g
         id="g3537">
        <g
           id="g3505">
          <circle
             style="fill:none;stroke:#000000;stroke-width:0.999548;stroke-linecap:round;stroke-linejoin:round;stroke-miterlimit:1;stroke-dasharray:none"
             id="path3487"
             cx="170.94576"
             cy="74.880798"
             r="4" />
          <circle
             style="fill:none;stroke:#000000;stroke-width:0.999548;stroke-linecap:round;stroke-linejoin:round;stroke-miterlimit:1;stroke-dasharray:none"
             id="circle3489"
             cx="190.92415"
             cy="74.880798"
             r="4" />
          <circle
             style="fill:none;stroke:#000000;stroke-width:0.999548;stroke-linecap:round;stroke-linejoin:round;stroke-miterlimit:1;stroke-dasharray:none"
             id="path3493"
             cx="170.94576"
             cy="64.953041"
             r="2.5" />
          <circle
             style="fill:none;stroke:#000000;stroke-width:0.999548;stroke-linecap:round;stroke-linejoin:round;stroke-miterlimit:1;stroke-dasharray:none"
             id="circle3495"
             cx="190.92415"
             cy="64.953041"
             r="2.5" />
        </g>
        <g
           id="g3525">
          <circle
             style="fill:none;stroke:#000000;stroke-width:0.999548;stroke-linecap:round;stroke-linejoin:round;stroke-miterlimit:1;stroke-dasharray:none"
             id="circle3507"
             cx="69.851051"
             cy="74.880798"
             r="4" />
          <circle
             style="fill:none;stroke:#000000;stroke-width:0.999548;stroke-linecap:round;stroke-linejoin:round;stroke-miterlimit:1;stroke-dasharray:none"
             id="circle3509"
             cx="89.896263"
             cy="74.880798"
             r="4" />
          <circle
             style="fill:none;stroke:#000000;stroke-width:0.999548;stroke-linecap:round;stroke-linejoin:round;stroke-miterlimit:1;stroke-dasharray:none"
             id="circle3511"
             cx="69.851051"
             cy="64.953041"
             r="2.5" />
          <circle
             style="fill:none;stroke:#000000;stroke-width:0.999548;stroke-linecap:round;stroke-linejoin:round;stroke-miterlimit:1;stroke-dasharray:none"
             id="circle3513"
             cx="89.896263"
             cy="64.953041"
             r="2.5" />
        </g>
      </g>
    </g>
    <rect
       style="fill:#ffff00;stroke:#0000ff;stroke-width:0.2;stroke-linecap:square"
       id="rect10"
       width="48.5"
       height="26.5"
       x="-190.43765"
       y="72.77372" />
    <rect
       style="fill:#ffff00;stroke:#0000ff;stroke-width:0.2;stroke-linecap:square"
       id="rect12"
       width="17.5"
       height="26.5"
       x="-132.38667"
       y="73.308266" />
    <text
       xml:space="preserve"
       style="font-size:5.38665px;line-height:1.25;font-family:sans-serif;text-align:center;letter-spacing:0px;word-spacing:0px;text-anchor:middle;stroke-width:0.336666"
       x="-148.72066"
       y="85.600838"
       id="text16"><tspan
         sodipodi:role="line"
         id="tspan14"
         x="-148.72066"
         y="85.600838"
         style="font-size:5.38665px;stroke-width:0.336666">Mál á rafhlöðu 48.5x26.5x17.5</tspan></text>
    <rect
       style="fill:#00ff00;stroke:#0000ff;stroke-width:0.2;stroke-linecap:square"
       id="rect18"
       width="65"
       height="20"
       x="-189.90312"
       y="111.05909" />
    <text
       xml:space="preserve"
       style="font-size:5.46775px;line-height:1.25;font-family:sans-serif;text-align:center;letter-spacing:0px;word-spacing:0px;text-anchor:middle;stroke-width:0.341736"
       x="-158.36311"
       y="116.85024"
       id="text22"><tspan
         sodipodi:role="line"
         id="tspan20"
         x="-158.36311"
         y="116.85024"
         style="font-size:5.46775px;stroke-width:0.341736">Mál á veroborði 65x20</tspan><tspan
         sodipodi:role="line"
         x="-158.36311"
         y="123.68493"
         style="font-size:5.46775px;stroke-width:0.341736"
         id="tspan24">25x8 raðir</tspan></text>
    <use
       x="0"
       y="0"
       inkscape:tiled-clone-of="#rect5766"
       xlink:href="#rect5766"
       transform="translate(10.170089)"
       id="use6478"
       width="100%"
       height="100%" />
    <rect
       style="fill:#000000;fill-opacity:0.417671;fill-rule:evenodd;stroke:none;stroke-width:0.0830064"
       id="rect5766"
       width="1.9999849"
       height="20"
       x="-190.00313"
       y="140.95909"
       inkscape:tile-cx="37.885924"
       inkscape:tile-cy="107.79603"
       inkscape:tile-w="2.5399999"
       inkscape:tile-h="160"
       inkscape:tile-x0="36.615924"
       inkscape:tile-y0="27.796029" />
    <use
       x="0"
       y="0"
       inkscape:tiled-clone-of="#rect5766"
       xlink:href="#rect5766"
       transform="translate(2.5425308)"
       id="use6472"
       width="100%"
       height="100%" />
    <use
       x="0"
       y="0"
       inkscape:tiled-clone-of="#rect5766"
       xlink:href="#rect5766"
       transform="translate(5.0850508)"
       id="use6474"
       width="100%"
       height="100%" />
    <use
       x="0"
       y="0"
       inkscape:tiled-clone-of="#rect5766"
       xlink:href="#rect5766"
       transform="translate(7.6275608)"
       id="use6476"
       width="100%"
       height="100%" />
    <use
       x="0"
       y="0"
       inkscape:tiled-clone-of="#rect5766"
       xlink:href="#rect5766"
       transform="translate(12.712611)"
       id="use6480"
       width="100%"
       height="100%" />
    <use
       x="0"
       y="0"
       inkscape:tiled-clone-of="#rect5766"
       xlink:href="#rect5766"
       transform="translate(15.255131)"
       id="use6482"
       width="100%"
       height="100%" />
    <use
       x="0"
       y="0"
       inkscape:tiled-clone-of="#rect5766"
       xlink:href="#rect5766"
       transform="translate(17.797641)"
       id="use6484"
       width="100%"
       height="100%" />
    <use
       x="0"
       y="0"
       inkscape:tiled-clone-of="#rect5766"
       xlink:href="#rect5766"
       transform="translate(20.340151)"
       id="use6486"
       width="100%"
       height="100%" />
    <use
       x="0"
       y="0"
       inkscape:tiled-clone-of="#rect5766"
       xlink:href="#rect5766"
       transform="translate(22.882691)"
       id="use6488"
       width="100%"
       height="100%" />
    <use
       x="0"
       y="0"
       inkscape:tiled-clone-of="#rect5766"
       xlink:href="#rect5766"
       transform="translate(25.425211)"
       id="use6490"
       width="100%"
       height="100%" />
    <use
       x="0"
       y="0"
       inkscape:tiled-clone-of="#rect5766"
       xlink:href="#rect5766"
       transform="translate(27.967721)"
       id="use6492"
       width="100%"
       height="100%" />
    <use
       x="0"
       y="0"
       inkscape:tiled-clone-of="#rect5766"
       xlink:href="#rect5766"
       transform="translate(30.510261)"
       id="use6494"
       width="100%"
       height="100%" />
    <use
       x="0"
       y="0"
       inkscape:tiled-clone-of="#rect5766"
       xlink:href="#rect5766"
       transform="translate(33.052781)"
       id="use6496"
       width="100%"
       height="100%" />
    <use
       x="0"
       y="0"
       inkscape:tiled-clone-of="#rect5766"
       xlink:href="#rect5766"
       transform="translate(35.595291)"
       id="use6498"
       width="100%"
       height="100%" />
    <use
       x="0"
       y="0"
       inkscape:tiled-clone-of="#rect5766"
       xlink:href="#rect5766"
       transform="translate(38.137801)"
       id="use6500"
       width="100%"
       height="100%" />
    <use
       x="0"
       y="0"
       inkscape:tiled-clone-of="#rect5766"
       xlink:href="#rect5766"
       transform="translate(40.680341)"
       id="use6502"
       width="100%"
       height="100%" />
    <use
       x="0"
       y="0"
       inkscape:tiled-clone-of="#rect5766"
       xlink:href="#rect5766"
       transform="translate(43.222861)"
       id="use6504"
       width="100%"
       height="100%" />
    <use
       x="0"
       y="0"
       inkscape:tiled-clone-of="#rect5766"
       xlink:href="#rect5766"
       transform="translate(45.765371)"
       id="use6506"
       width="100%"
       height="100%" />
    <use
       x="0"
       y="0"
       inkscape:tiled-clone-of="#rect5766"
       xlink:href="#rect5766"
       transform="translate(48.307881)"
       id="use6508"
       width="100%"
       height="100%" />
    <use
       x="0"
       y="0"
       inkscape:tiled-clone-of="#rect5766"
       xlink:href="#rect5766"
       transform="translate(50.850421)"
       id="use6510"
       width="100%"
       height="100%" />
    <use
       x="0"
       y="0"
       inkscape:tiled-clone-of="#rect5766"
       xlink:href="#rect5766"
       transform="translate(53.392941)"
       id="use6512"
       width="100%"
       height="100%" />
    <use
       x="0"
       y="0"
       inkscape:tiled-clone-of="#rect5766"
       xlink:href="#rect5766"
       transform="translate(55.935451)"
       id="use6514"
       width="100%"
       height="100%" />
    <use
       x="0"
       y="0"
       inkscape:tiled-clone-of="#rect5766"
       xlink:href="#rect5766"
       transform="translate(58.477991)"
       id="use6516"
       width="100%"
       height="100%" />
    <use
       x="0"
       y="0"
       inkscape:tiled-clone-of="#rect5766"
       xlink:href="#rect5766"
       transform="translate(61.020501)"
       id="use6518"
       width="100%"
       height="100%" />
    <use
       x="0"
       y="0"
       inkscape:tiled-clone-of="#rect5766"
       xlink:href="#rect5766"
       transform="translate(63.563021)"
       id="use6520"
       width="100%"
       height="100%" />
    <rect
       style="fill:#00ffff;stroke:#0000ff;stroke-width:0.192608;stroke-linecap:square"
       id="rect5350"
       width="69.807388"
       height="53.807392"
       x="-190.41484"
       y="169.19177" />
    <rect
       style="fill:#00ffff;stroke:#0000ff;stroke-width:0.204844;stroke-linecap:square"
       id="rect5354"
       width="15.795156"
       height="53.795158"
       x="-108.92154"
       y="167.71901" />
    <rect
       style="fill:#2b0000;stroke:#0000ff;stroke-width:0.196846;stroke-linecap:square"
       id="rect5356"
       width="11.803156"
       height="12.803154"
       x="-106.40471"
       y="203.55751" />
    <rect
       style="fill:#2b0000;stroke:#0000ff;stroke-width:0.196399;stroke-linecap:square"
       id="rect5358"
       width="11.8036"
       height="9.8036013"
       x="-106.40493"
       y="174.5573" />
    <text
       xml:space="preserve"
       style="font-size:10.5833px;line-height:1.25;font-family:sans-serif;text-align:center;letter-spacing:0px;word-spacing:0px;text-anchor:middle;stroke-width:0.264583"
       x="-103.25132"
       y="165.43686"
       id="text5362"><tspan
         sodipodi:role="line"
         id="tspan5360"
         x="-103.25132"
         y="165.43686"
         style="stroke-width:0.264583">16</tspan></text>
    <text
       xml:space="preserve"
       style="font-size:10.5833px;line-height:1.25;font-family:sans-serif;text-align:center;letter-spacing:0px;word-spacing:0px;text-anchor:middle;stroke-width:0.264583"
       x="-194.39021"
       y="197.91011"
       id="text5366"><tspan
         sodipodi:role="line"
         id="tspan5364"
         x="-194.39021"
         y="197.91011"
         style="stroke-width:0.264583">54</tspan></text>
    <text
       xml:space="preserve"
       style="font-size:10.5833px;line-height:1.25;font-family:sans-serif;text-align:center;letter-spacing:0px;word-spacing:0px;text-anchor:middle;stroke-width:0.264583"
       x="-161.51607"
       y="231.05153"
       id="text5370"><tspan
         sodipodi:role="line"
         id="tspan5368"
         x="-161.51607"
         y="231.05153"
         style="stroke-width:0.264583">70</tspan></text>
    <text
       xml:space="preserve"
       style="font-size:10.5833px;line-height:1.25;font-family:sans-serif;text-align:center;letter-spacing:0px;word-spacing:0px;text-anchor:middle;stroke-width:0.264583"
       x="-87.616035"
       y="183.47755"
       id="text5374"><tspan
         sodipodi:role="line"
         x="-87.616035"
         y="183.47755"
         style="stroke-width:0.264583"
         id="tspan5376">10</tspan></text>
    <text
       xml:space="preserve"
       style="font-size:10.5833px;line-height:1.25;font-family:sans-serif;text-align:center;letter-spacing:0px;word-spacing:0px;text-anchor:middle;stroke-width:0.264583"
       x="-100.97951"
       y="195.90559"
       id="text5382"><tspan
         sodipodi:role="line"
         id="tspan5380"
         x="-100.97951"
         y="195.90559"
         style="stroke-width:0.264583">12</tspan></text>
    <text
       xml:space="preserve"
       style="font-size:10.5833px;line-height:1.25;font-family:sans-serif;text-align:center;letter-spacing:0px;word-spacing:0px;text-anchor:middle;stroke-width:0.264583"
       x="-87.482399"
       y="214.21355"
       id="text5386"><tspan
         sodipodi:role="line"
         id="tspan5384"
         x="-87.482399"
         y="214.21355"
         style="stroke-width:0.264583">13</tspan></text>
    <circle
       style="fill:none;stroke:#000000;stroke-width:0.999548;stroke-linecap:round;stroke-linejoin:round;stroke-miterlimit:1;stroke-dasharray:none"
       id="path3719"
       cx="130.5"
       cy="19.900299"
       r="10" />
  </g>
</svg>
